<?xml version="1.0" standalone="no"?>
<!DOCTYPE svg PUBLIC "-//W3C//DTD SVG 20010904//EN"
 "http://www.w3.org/TR/2001/REC-SVG-20010904/DTD/svg10.dtd">
<svg version="1.0" xmlns="http://www.w3.org/2000/svg"
 width="284.000000pt" height="76.000000pt" viewBox="0 0 284.000000 76.000000"
 preserveAspectRatio="xMidYMid meet">

<g transform="translate(0.000000,76.000000) scale(0.100000,-0.100000)"
fill="#000000" stroke="none">
<path d="M0 380 l0 -380 1420 0 1420 0 0 380 0 380 -1420 0 -1420 0 0 -380z
m430 115 l0 -35 -70 0 -70 0 0 -185 0 -185 -35 0 -35 0 0 185 0 185 -70 0 -70
0 0 35 0 35 175 0 175 0 0 -35z m740 -35 c0 -74 8 -84 41 -54 27 25 99 29 138
9 49 -25 61 -65 61 -205 l0 -120 -35 0 -35 0 0 109 c0 94 -3 112 -21 135 -14
18 -30 26 -50 26 -70 0 -89 -39 -89 -182 l0 -88 -35 0 -35 0 0 220 0 220 30 0
30 0 0 -70z m590 35 l0 -35 -70 0 -70 0 0 -185 0 -185 -35 0 -35 0 0 185 0
185 -70 0 -70 0 0 35 0 35 175 0 175 0 0 -35z m-1120 -86 c45 -25 68 -63 76
-123 l7 -46 -122 0 c-122 0 -122 0 -115 -22 13 -43 34 -58 84 -58 31 0 52 6
60 15 9 11 22 14 44 9 40 -8 40 -8 24 -34 -35 -58 -130 -79 -203 -45 -91 44
-115 194 -42 274 48 52 125 65 187 30z m347 4 c30 -14 73 -64 73 -84 0 -4 -14
-9 -32 -13 -25 -5 -37 -1 -58 19 -48 46 -120 25 -136 -40 -9 -36 2 -94 22
-116 25 -28 98 -26 118 2 12 18 21 20 51 15 l36 -7 -18 -32 c-39 -65 -137 -90
-206 -50 -86 51 -104 195 -34 272 46 50 121 64 184 34z m1402 -9 c40 -33 51
-77 51 -206 l0 -108 -35 0 -35 0 0 94 c0 101 -12 151 -40 166 -32 17 -70 11
-95 -15 -24 -23 -25 -31 -25 -135 l0 -110 -35 0 -35 0 0 165 0 165 30 0 c20 0
30 -5 30 -15 0 -19 3 -19 42 5 48 29 109 26 147 -6z m329 6 c44 -27 72 -76 72
-127 l0 -43 -115 0 c-126 0 -133 -4 -94 -54 16 -20 29 -26 61 -26 24 0 49 7
59 16 14 13 26 14 56 7 l38 -9 -41 -42 c-42 -42 -60 -48 -129 -43 -126 11
-188 178 -105 283 44 57 138 75 198 38z m-886 -93 c4 -128 19 -157 76 -157 69
0 77 13 80 144 l4 116 34 0 34 0 0 -165 0 -165 -30 0 c-23 0 -30 4 -30 20 0
19 -1 19 -36 -2 -40 -24 -106 -28 -141 -9 -44 23 -57 67 -61 199 l-4 122 35 0
35 0 4 -103z"/>
<path d="M507 342 c-10 -10 -17 -26 -17 -35 0 -15 12 -17 80 -17 86 0 94 6 64
48 -20 29 -102 32 -127 4z"/>
<path d="M2581 334 c-12 -15 -21 -31 -21 -35 0 -5 36 -9 80 -9 71 0 80 2 80
18 0 30 -33 52 -78 52 -32 0 -45 -6 -61 -26z"/>
</g>
</svg>
